<svg data-v-423bf9ae="" xmlns="http://www.w3.org/2000/svg" viewBox="0 0 507.8431012526971 163" class="iconAbove"><!----><!----><!----><g data-v-423bf9ae="" id="10c57ff8-ad38-476c-b8a3-a5682b1c2fbd" fill="white" transform="matrix(5.602240876404433,0,0,5.602240876404433,-5.882351813449361,85.1848700627653)"><path d="M2.03 8.60L2.03 4.72L4.24 4.72C4.82 4.72 5.28 4.90 5.63 5.26C5.97 5.62 6.15 6.07 6.15 6.63C6.15 7.18 5.96 7.65 5.60 8.04C5.25 8.41 4.79 8.60 4.24 8.60ZM7.13 6.65C7.13 5.83 6.83 5.14 6.24 4.59C5.66 4.05 4.95 3.78 4.10 3.78L1.05 3.78L1.05 13.30L2.03 13.30L2.03 9.53L3.17 9.53L5.96 13.30L7.28 13.30L4.35 9.53C5.09 9.48 5.72 9.21 6.24 8.73C6.83 8.18 7.13 7.48 7.13 6.65ZM9.65 6.29L14.99 13.89L14.99 3.78L14.01 3.78L14.01 10.78L8.67 3.18L8.67 13.30L9.65 13.30ZM22.75 13.30L22.75 12.39L18.07 12.39L18.07 9.00L22.61 9.00L22.61 8.08L18.07 8.08L18.07 4.69L22.75 4.69L22.75 3.78L17.09 3.78L17.09 13.30ZM24.08 4.66L26.39 4.66L26.39 13.27L27.37 13.27L27.37 4.66L29.68 4.66L29.68 3.75L27.37 3.75L26.39 3.75L24.08 3.75ZM35.77 13.30L35.77 9.04L40.10 9.04L40.10 13.30L41.08 13.30L41.08 3.78L40.10 3.78L40.10 8.06L35.77 8.06L35.77 3.78L34.79 3.78L34.79 13.30ZM51.56 8.51C51.56 9.59 51.18 10.52 50.41 11.28C49.65 12.05 48.72 12.43 47.64 12.43C46.57 12.43 45.65 12.05 44.88 11.28C44.12 10.52 43.74 9.59 43.74 8.51C43.74 7.44 44.12 6.52 44.88 5.75C45.65 4.99 46.57 4.61 47.64 4.61C48.72 4.61 49.65 4.99 50.41 5.75C51.18 6.52 51.56 7.44 51.56 8.51ZM52.54 8.51C52.54 7.84 52.41 7.21 52.16 6.61C51.90 6.01 51.55 5.49 51.11 5.05C50.66 4.62 50.14 4.27 49.55 4.01C48.95 3.75 48.31 3.63 47.64 3.63C46.97 3.63 46.34 3.75 45.75 4.01C45.15 4.27 44.63 4.62 44.19 5.05C43.75 5.49 43.40 6.01 43.14 6.61C42.88 7.21 42.76 7.84 42.76 8.51C42.76 9.18 42.88 9.82 43.14 10.42C43.40 11.01 43.75 11.53 44.19 11.98C44.63 12.42 45.15 12.77 45.75 13.03C46.34 13.28 46.97 13.41 47.64 13.41C48.31 13.41 48.95 13.28 49.55 13.03C50.14 12.77 50.66 12.42 51.11 11.98C51.55 11.53 51.90 11.01 52.16 10.42C52.41 9.82 52.54 9.18 52.54 8.51ZM53.45 4.66L55.76 4.66L55.76 13.27L56.74 13.27L56.74 4.66L59.05 4.66L59.05 3.75L56.74 3.75L55.76 3.75L53.45 3.75ZM63.03 8.81C64.26 9.11 65.10 9.43 65.54 9.79C65.84 10.04 66.00 10.36 66.00 10.76C66.00 11.16 65.91 11.47 65.75 11.70C65.33 12.29 64.58 12.59 63.52 12.59C62.02 12.59 61.19 12.08 61.01 11.07L59.85 11.07C60.19 12.68 61.41 13.48 63.52 13.48C64.45 13.48 65.24 13.27 65.87 12.86C66.63 12.37 67.00 11.65 67.01 10.69C67.00 9.91 66.70 9.31 66.09 8.88C65.65 8.57 64.95 8.29 63.98 8.04C63.01 7.79 62.38 7.58 62.08 7.42C61.44 7.10 61.12 6.65 61.13 6.07C61.12 5.76 61.19 5.50 61.33 5.30C61.70 4.75 62.34 4.48 63.26 4.48C64.56 4.48 65.31 4.89 65.50 5.71L66.56 5.71C66.21 4.33 65.11 3.64 63.26 3.64C62.41 3.64 61.68 3.86 61.05 4.30C60.43 4.75 60.12 5.42 60.12 6.31C60.11 7.53 61.08 8.36 63.03 8.81ZM69.40 8.58L69.40 4.71L71.61 4.71C72.19 4.71 72.65 4.89 73.00 5.25C73.34 5.60 73.51 6.06 73.51 6.62C73.51 7.18 73.33 7.65 72.97 8.03C72.61 8.39 72.16 8.58 71.61 8.58ZM74.49 6.65C74.49 5.81 74.20 5.12 73.61 4.57C73.02 4.04 72.31 3.78 71.47 3.78L68.42 3.78L68.42 13.30L69.40 13.30L69.40 9.53L71.47 9.53C72.32 9.53 73.03 9.26 73.61 8.73C74.20 8.17 74.49 7.48 74.49 6.65ZM84.21 8.51C84.21 9.59 83.83 10.52 83.06 11.28C82.30 12.05 81.37 12.43 80.29 12.43C79.22 12.43 78.30 12.05 77.53 11.28C76.77 10.52 76.38 9.59 76.38 8.51C76.38 7.44 76.77 6.52 77.53 5.75C78.30 4.99 79.22 4.61 80.29 4.61C81.37 4.61 82.30 4.99 83.06 5.75C83.83 6.52 84.21 7.44 84.21 8.51ZM85.19 8.51C85.19 7.84 85.06 7.21 84.81 6.61C84.55 6.01 84.20 5.49 83.76 5.05C83.31 4.62 82.79 4.27 82.19 4.01C81.60 3.75 80.96 3.63 80.29 3.63C79.62 3.63 78.99 3.75 78.39 4.01C77.80 4.27 77.28 4.62 76.84 5.05C76.40 5.49 76.05 6.01 75.79 6.61C75.53 7.21 75.40 7.84 75.40 8.51C75.40 9.18 75.53 9.82 75.79 10.42C76.05 11.01 76.40 11.53 76.84 11.98C77.28 12.42 77.80 12.77 78.39 13.03C78.99 13.28 79.62 13.41 80.29 13.41C80.96 13.41 81.60 13.28 82.19 13.03C82.79 12.77 83.31 12.42 83.76 11.98C84.20 11.53 84.55 11.01 84.81 10.42C85.06 9.82 85.19 9.18 85.19 8.51ZM86.10 4.66L88.41 4.66L88.41 13.27L89.39 13.27L89.39 4.66L91.70 4.66L91.70 3.75L89.39 3.75L88.41 3.75L86.10 3.75Z"></path></g><!----><g data-v-423bf9ae="" id="2d2486c3-9a59-4e28-8e9e-a0984fdee4b2" transform="matrix(1.0758342939691528,0,0,1.0758342939691528,202.84897006730606,-6.468049184849271)" stroke="none" fill="white"><path d="M35.152 69.992c-2.712-6.092-4.288-12.916-4.54-20H66.4c-.252 7.084-1.828 13.908-4.545 20H35.152zM63.496 20.38c4.048-2.004 7.939-3.66 11.52-4.852-6.42-5.252-14.408-8.66-23.168-9.356 4.692 3.796 8.608 8.652 11.648 14.208zM59.8 21.992c-2.944-5.252-6.752-9.776-11.296-13.236-4.544 3.452-8.352 7.984-11.296 13.236H59.8zm-6.532 4H35.172c-2.16 4.832-3.56 10.124-4.192 15.64a201.207 201.207 0 0 1 6.928-5.412 188.17 188.17 0 0 1 15.36-10.228zm28.152-4a41.467 41.467 0 0 0-2.972-3.352c-2.656.756-5.685 1.868-9.044 3.352H81.42zm-20.149 4c-6.34 3.416-13.416 7.844-20.983 13.452a188.911 188.911 0 0 0-8.348 6.548h34.449c-.257-7.084-1.837-13.908-4.561-20h-.557zM11.228 67.08c.504.984.984 1.977 1.568 2.916H30.82c-2.432-6.028-3.868-12.612-4.16-19.444-6.772 6.08-11.908 11.728-15.432 16.528zm40.676 22.748c11.947-.964 22.496-6.936 29.531-15.836H64.439c-3.13 6.252-7.403 11.656-12.535 15.836zM45.152 6.172c-11.964.948-22.516 6.92-29.564 15.82h17.004c3.14-6.248 7.412-11.648 12.56-15.82zm-7.972 67.82c2.944 5.264 6.76 9.82 11.324 13.283 4.561-3.463 8.38-8.016 11.324-13.283H37.18zm28.992-48c2.508 6.188 3.98 12.968 4.221 20h20.012a41.672 41.672 0 0 0-6.196-20H66.172zm.019 44h18.033a41.715 41.715 0 0 0 6.184-20H70.4c-.24 7.031-1.705 13.808-4.209 20zm-33.619 4H15.58c7.036 8.9 17.576 14.872 29.528 15.836-5.14-4.18-9.412-9.584-12.536-15.836zm-5.9-28.748c.316-6.756 1.744-13.28 4.16-19.252H12.8a41.672 41.672 0 0 0-6.196 20h19.2c.284-.248.58-.496.868-.748zm-5.256 4.748H6.608c.216 4.552 1.224 8.876 2.776 12.928 3.28-4.176 7.404-8.568 12.032-12.928zM11.976 82.2c-3.044.315-5.176-.12-6.012-1.248-1.24-1.668-.268-5.36 2.848-10.36-1.168-1.972-2.124-3.624-2.24-3.82C1.908 73.668.02 79.656 2.748 83.34c1.468 1.969 3.952 2.965 7.404 2.965.708 0 1.456-.049 2.244-.129a1.989 1.989 0 0 0 1.776-2.199 1.986 1.986 0 0 0-2.196-1.777zm81.236-65.884c-2.349-3.168-7.336-3.556-13.748-2.044l3.076 2.96c.116.124.228.252.34.388 3.672-.584 6.168-.216 7.116 1.076.96 1.3.4 3.608-.248 5.32A2.01 2.01 0 0 0 90.92 26.6a2.008 2.008 0 0 0 2.576-1.172c1.44-3.844 1.344-6.904-.284-9.112z"></path></g><!----></svg>